<svg aria-hidden="true" style="position: absolute; width: 0; height: 0; overflow: hidden;" version="1.1" xmlns="http://www.w3.org/2000/svg" xmlns:xlink="http://www.w3.org/1999/xlink">
<defs>
<symbol id="home-room" viewBox="0 0 40 32">
<path d="M37.5 28.5h-2.5v-14.453c0.001-0.349-0.073-0.693-0.215-1.011s-0.352-0.602-0.613-0.833l-12.5-11.359c-0.458-0.421-1.058-0.654-1.68-0.654s-1.221 0.233-1.68 0.654l-12.5 11.359c-0.256 0.234-0.46 0.519-0.6 0.836s-0.212 0.66-0.212 1.007v14.453h-2.5c-0.332 0-0.649 0.132-0.884 0.366s-0.366 0.552-0.366 0.884c0 0.332 0.132 0.649 0.366 0.884s0.552 0.366 0.884 0.366h35c0.331 0 0.649-0.132 0.884-0.366s0.366-0.552 0.366-0.884c0-0.331-0.132-0.649-0.366-0.884s-0.552-0.366-0.884-0.366zM23.75 28.5h-7.5v-7.5c0-0.331 0.132-0.649 0.366-0.884s0.552-0.366 0.884-0.366h5c0.331 0 0.649 0.132 0.884 0.366s0.366 0.552 0.366 0.884v7.5z"></path>
</symbol>
<symbol id="microdeposits" viewBox="0 0 32 32">
<path fill="#888" style="fill: var(--color1, #888)" d="M16 0.563c-3.053 0-6.038 0.905-8.577 2.602s-4.517 4.107-5.686 6.928c-1.168 2.821-1.474 5.925-0.878 8.919s2.066 5.745 4.225 7.904c2.159 2.159 4.91 3.629 7.904 4.225s6.099 0.29 8.919-0.878c2.821-1.168 5.232-3.147 6.928-5.686s2.602-5.523 2.602-8.577c-0.008-4.092-1.637-8.014-4.53-10.907s-6.815-4.522-10.907-4.53zM17.781 23.125h-0.594v1.188c0 0.315-0.125 0.617-0.348 0.84s-0.525 0.348-0.84 0.348c-0.315 0-0.617-0.125-0.84-0.348s-0.348-0.525-0.348-0.84v-1.188h-2.375c-0.315 0-0.617-0.125-0.84-0.348s-0.348-0.525-0.348-0.84c0-0.315 0.125-0.617 0.348-0.84s0.525-0.348 0.84-0.348h5.344c0.473 0 0.925-0.188 1.26-0.522s0.522-0.787 0.522-1.259c0-0.473-0.188-0.925-0.522-1.26s-0.787-0.522-1.26-0.522h-3.563c-1.102 0-2.159-0.438-2.939-1.217s-1.217-1.837-1.217-2.939c0-1.102 0.438-2.159 1.217-2.939s1.837-1.217 2.939-1.217h0.594v-1.188c0-0.315 0.125-0.617 0.348-0.84s0.525-0.348 0.84-0.348c0.315 0 0.617 0.125 0.84 0.348s0.348 0.525 0.348 0.84v1.188h2.375c0.315 0 0.617 0.125 0.84 0.348s0.348 0.525 0.348 0.84c0 0.315-0.125 0.617-0.348 0.84s-0.525 0.348-0.84 0.348h-5.344c-0.472 0-0.925 0.188-1.26 0.522s-0.522 0.787-0.522 1.259c0 0.473 0.188 0.925 0.522 1.26s0.787 0.522 1.259 0.522h3.563c1.102 0 2.16 0.438 2.939 1.217s1.217 1.837 1.217 2.939c0 1.102-0.438 2.159-1.217 2.939s-1.837 1.217-2.939 1.217z"></path>
</symbol>
<symbol id="calendary" viewBox="0 0 32 32">
<path fill="#888" style="fill: var(--color1, #888)" d="M8 0c1.105 0 2 0.895 2 2v2h12v-2c0-1.105 0.895-2 2-2s2 0.895 2 2v2h2c2.209 0 4 1.791 4 4v20c0 2.209-1.791 4-4 4h-24c-2.209 0-4-1.791-4-4v-20c0-2.209 1.791-4 4-4h2v-2c0-1.105 0.895-2 2-2zM8 10c-1.105 0-2 0.895-2 2s0.895 2 2 2h16c1.105 0 2-0.895 2-2s-0.895-2-2-2h-16z"></path>
</symbol>
<symbol id="down" viewBox="0 0 53 32">
<path fill="#666" style="fill: var(--color2, #666)" d="M1.562 1.562c2.083-2.083 5.46-2.083 7.543 0l17.562 17.562 17.562-17.562c2.083-2.083 5.46-2.083 7.543 0s2.083 5.46 0 7.543l-21.333 21.333c-2.083 2.083-5.46 2.083-7.543 0l-21.333-21.333c-2.083-2.083-2.083-5.46 0-7.543z"></path>
</symbol>
<symbol id="back" viewBox="0 0 23 32">
<path d="M20.091 0.937c1.25 1.25 1.25 3.276 0 4.525l-10.537 10.537 10.537 10.537c1.25 1.25 1.25 3.276 0 4.525s-3.276 1.25-4.526 0l-12.8-12.8c-1.25-1.25-1.25-3.276 0-4.526l12.8-12.8c1.25-1.25 3.276-1.25 4.526 0z"></path>
</symbol>
<symbol id="privacy" viewBox="0 0 28 32">
<path fill="#666" style="fill: var(--color2, #666)" d="M25.333 11.111h-5v-3.889c0-1.621-0.644-3.175-1.79-4.321s-2.7-1.79-4.321-1.79c-1.621 0-3.175 0.644-4.321 1.79s-1.79 2.7-1.79 4.321v3.889h-5c-0.589 0-1.155 0.234-1.571 0.651s-0.651 0.982-0.651 1.571v15.556c0 0.589 0.234 1.155 0.651 1.571s0.982 0.651 1.571 0.651h22.222c0.589 0 1.155-0.234 1.571-0.651s0.651-0.982 0.651-1.571v-15.556c0-0.589-0.234-1.155-0.651-1.571s-0.982-0.651-1.571-0.651zM15.333 23.167v2.389c0 0.295-0.117 0.577-0.325 0.786s-0.491 0.325-0.786 0.325c-0.295 0-0.577-0.117-0.786-0.325s-0.325-0.491-0.325-0.786v-2.389c-0.895-0.267-1.664-0.847-2.167-1.634s-0.705-1.729-0.57-2.654 0.598-1.769 1.304-2.38c0.707-0.611 1.609-0.947 2.544-0.947s1.837 0.336 2.544 0.947c0.707 0.611 1.17 1.456 1.305 2.38s-0.068 1.866-0.57 2.654c-0.503 0.787-1.272 1.368-2.167 1.634zM18.111 11.111h-7.778v-3.889c0-1.031 0.41-2.021 1.139-2.75s1.719-1.139 2.75-1.139 2.021 0.41 2.75 1.139c0.729 0.729 1.139 1.718 1.139 2.75v3.889z"></path>
</symbol>
<symbol id="security" viewBox="0 0 31 32">
<path fill="#666" style="fill: var(--color2, #666)" d="M27.36 0.88h-24c-0.637 0-1.247 0.253-1.697 0.703s-0.703 1.061-0.703 1.697v8.805c0 13.41 11.37 17.865 13.65 18.615 0.487 0.16 1.013 0.16 1.5 0 2.28-0.75 13.65-5.205 13.65-18.615v-8.805c0-0.637-0.253-1.247-0.703-1.697s-1.060-0.703-1.697-0.703zM15.36 28.42c-1.905-0.63-10.845-4.14-11.895-14.34h11.895v-10.8h12v8.805c0.004 0.666-0.032 1.333-0.105 1.995h-11.895v14.34z"></path>
</symbol>
<symbol id="message" viewBox="0 0 42 32">
<path fill="#666" style="fill: var(--color2, #666)" d="M38.8 1h-36c-0.398 0-0.779 0.158-1.061 0.439s-0.439 0.663-0.439 1.061v25.5c0 0.796 0.316 1.559 0.879 2.121s1.326 0.879 2.121 0.879h33c0.796 0 1.559-0.316 2.121-0.879s0.879-1.326 0.879-2.121v-25.5c0-0.398-0.158-0.779-0.439-1.061s-0.663-0.439-1.061-0.439zM37.3 28h-33v-22.087l15.488 14.194c0.276 0.253 0.638 0.393 1.012 0.393s0.736-0.14 1.012-0.393l15.488-14.194v22.087z"></path>
</symbol>
<symbol id="personal" viewBox="0 0 48 32">
<path fill="#666" style="fill: var(--color2, #666)" d="M22.725 21.606c2.012-1.337 3.541-3.286 4.36-5.559s0.884-4.75 0.185-7.063-2.123-4.34-4.062-5.78c-1.94-1.441-4.292-2.218-6.708-2.218s-4.768 0.778-6.708 2.218-3.364 3.467-4.062 5.78c-0.698 2.313-0.633 4.789 0.185 7.063s2.347 4.222 4.36 5.559c-3.433 1.263-6.397 3.546-8.494 6.544-0.164 0.222-0.261 0.487-0.281 0.762s0.039 0.551 0.169 0.794c0.129 0.242 0.32 0.445 0.555 0.587s0.503 0.218 0.777 0.22h27c0.274-0.002 0.542-0.078 0.777-0.22s0.426-0.345 0.554-0.587c0.13-0.244 0.189-0.519 0.169-0.794s-0.117-0.54-0.281-0.762c-2.096-2.998-5.061-5.281-8.494-6.544z"></path>
<path fill="#666" style="fill: var(--color2, #666)" d="M46.519 28.15c-2.108-2.994-5.077-5.276-8.512-6.544 2.019-1.332 3.554-3.28 4.377-5.554s0.889-4.754 0.19-7.069c-0.699-2.315-2.128-4.343-4.072-5.781s-4.301-2.211-6.72-2.202c-1.032 0.005-2.060 0.144-3.056 0.413-0.234 0.070-0.448 0.195-0.624 0.365s-0.309 0.379-0.388 0.61c-0.076 0.229-0.094 0.474-0.055 0.712s0.135 0.464 0.28 0.657c1.696 2.278 2.67 5.013 2.797 7.85s-0.599 5.648-2.085 8.069c-0.19 0.322-0.256 0.702-0.183 1.069s0.278 0.694 0.577 0.919c0.563 0.437 1.106 0.888 1.631 1.35l0.094 0.094c2.001 1.852 3.625 4.074 4.781 6.544 0.119 0.258 0.309 0.476 0.548 0.629s0.518 0.234 0.802 0.233h8.381c0.274-0.002 0.542-0.078 0.777-0.22s0.426-0.345 0.555-0.587c0.128-0.243 0.188-0.517 0.171-0.791s-0.108-0.539-0.265-0.765z"></path>
</symbol>
<symbol id="account-info" viewBox="0 0 33 32">
<path fill="#666" style="fill: var(--color2, #666)" d="M32.225 29.24c-2.239-3.857-5.823-6.752-10.065-8.13 2.033-1.209 3.613-3.052 4.497-5.246s1.023-4.618 0.396-6.899-1.985-4.293-3.867-5.727c-1.881-1.434-4.181-2.211-6.547-2.211s-4.666 0.777-6.547 2.211c-1.881 1.434-3.24 3.446-3.867 5.727s-0.488 4.705 0.396 6.899c0.884 2.194 2.464 4.037 4.497 5.246-4.242 1.378-7.826 4.273-10.065 8.13-0.11 0.181-0.168 0.388-0.168 0.6s0.058 0.419 0.168 0.6c0.103 0.184 0.253 0.337 0.435 0.442s0.389 0.16 0.6 0.158h29.1c0.211 0.002 0.418-0.052 0.6-0.158s0.333-0.258 0.435-0.442c0.11-0.181 0.168-0.388 0.168-0.6s-0.058-0.419-0.168-0.6z"></path>
</symbol>
<symbol id="paypal-gray" viewBox="0 0 28 32">
<path fill="#888" style="fill: var(--color1, #888)" d="M25.21 8.881c-0.029 0.183-0.062 0.371-0.099 0.563-1.273 6.505-5.629 8.752-11.192 8.752h-2.832c-0.68 0-1.254 0.491-1.359 1.159l-1.45 9.153-0.41 2.595c-0.062 0.393 0.207 0.763 0.602 0.825 0.037 0.006 0.075 0.009 0.113 0.009h5.024c0.595 0 1.1-0.43 1.194-1.014l0.049-0.254 0.946-5.974 0.060-0.328c0.092-0.586 0.599-1.016 1.194-1.016h0.751c4.868 0 8.677-1.967 9.791-7.658 0.465-2.377 0.224-4.362-1.007-5.759-0.39-0.431-0.856-0.788-1.374-1.053z"></path>
<path fill="#888" style="fill: var(--color1, #888)" d="M22.601 2.393c-1.44-1.632-4.038-2.33-7.364-2.33h-9.654c-0.679 0-1.259 0.491-1.364 1.161l-4.021 25.367c-0.072 0.45 0.237 0.873 0.69 0.944 0.042 0.007 0.086 0.010 0.129 0.010h5.961l1.497-9.449-0.046 0.296c0.104-0.667 0.681-1.16 1.359-1.16h2.832c5.563 0 9.918-2.248 11.192-8.752 0.038-0.193 0.070-0.38 0.099-0.563h0.001c0.377-2.405-0.005-4.042-1.311-5.524z"></path>
</symbol>
<symbol id="card" viewBox="0 0 44 32">
<path fill="#438883" style="fill: var(--color3, #438883)" d="M40.364 0.545h-37.091c-0.82 0-1.606 0.326-2.186 0.905s-0.905 1.366-0.905 2.186v24.708c0 0.82 0.326 1.606 0.905 2.186s1.366 0.905 2.186 0.905h37.091c0.82 0 1.606-0.326 2.186-0.905s0.905-1.366 0.905-2.186v-24.708c0-0.82-0.326-1.606-0.905-2.186s-1.366-0.905-2.186-0.905zM23.364 25.273h-3.091c-0.41 0-0.803-0.163-1.093-0.453s-0.453-0.683-0.453-1.093 0.163-0.803 0.453-1.093c0.29-0.29 0.683-0.453 1.093-0.453h3.091c0.41 0 0.803 0.163 1.093 0.453s0.453 0.683 0.453 1.093c0 0.41-0.163 0.803-0.453 1.093s-0.683 0.453-1.093 0.453zM35.727 25.273h-6.182c-0.41 0-0.803-0.163-1.093-0.453s-0.453-0.683-0.453-1.093 0.163-0.803 0.453-1.093c0.29-0.29 0.683-0.453 1.093-0.453h6.182c0.41 0 0.803 0.163 1.093 0.453s0.453 0.683 0.453 1.093c0 0.41-0.163 0.803-0.453 1.093s-0.683 0.453-1.093 0.453zM3.273 8.447v-4.81h37.091v4.81h-37.091z"></path>
</symbol>
<symbol id="copy" viewBox="0 0 32 32">
<path fill="#438883" style="fill: var(--color3, #438883)" d="M29.75 1h-22.5c-0.332 0-0.649 0.132-0.884 0.366s-0.366 0.552-0.366 0.884c0 0.332 0.132 0.649 0.366 0.884s0.552 0.366 0.884 0.366h21.25v21.25c0 0.332 0.132 0.649 0.366 0.884s0.552 0.366 0.884 0.366 0.649-0.132 0.884-0.366c0.235-0.234 0.366-0.552 0.366-0.884v-22.5c0-0.332-0.132-0.649-0.366-0.884s-0.552-0.366-0.884-0.366z"></path>
<path fill="#438883" style="fill: var(--color3, #438883)" d="M24.75 6h-22.5c-0.69 0-1.25 0.56-1.25 1.25v22.5c0 0.69 0.56 1.25 1.25 1.25h22.5c0.69 0 1.25-0.56 1.25-1.25v-22.5c0-0.69-0.56-1.25-1.25-1.25z"></path>
</symbol>
<symbol id="check" viewBox="0 0 32 32">
<path fill="#438883" style="fill: var(--color3, #438883)" d="M16 0.524c-3.061 0-6.053 0.908-8.598 2.608s-4.529 4.118-5.7 6.945c-1.171 2.828-1.478 5.94-0.881 8.942s2.071 5.76 4.236 7.924c2.164 2.164 4.922 3.638 7.924 4.236s6.114 0.291 8.942-0.881c2.828-1.171 5.245-3.155 6.946-5.7s2.608-5.537 2.608-8.598c-0.008-4.102-1.641-8.034-4.542-10.935s-6.833-4.534-10.935-4.542zM23.366 13.292l-8.72 8.333c-0.225 0.212-0.524 0.329-0.833 0.327-0.151 0.002-0.302-0.026-0.442-0.082s-0.268-0.14-0.376-0.246l-4.36-4.167c-0.121-0.106-0.219-0.234-0.289-0.379s-0.11-0.302-0.117-0.462c-0.008-0.16 0.017-0.32 0.073-0.471s0.142-0.288 0.252-0.405c0.11-0.116 0.243-0.209 0.39-0.273s0.306-0.097 0.466-0.098c0.16-0.001 0.319 0.031 0.467 0.093s0.282 0.153 0.394 0.269l3.542 3.378 7.917-7.545c0.231-0.202 0.532-0.307 0.839-0.292s0.596 0.147 0.808 0.37c0.211 0.223 0.328 0.519 0.327 0.826s-0.122 0.602-0.336 0.822z"></path>
</symbol>
<symbol id="electricity" viewBox="0 0 23 32">
<path fill="#438883" style="fill: var(--color3, #438883)" d="M22.404 14.775c-0.037-0.161-0.114-0.311-0.223-0.435s-0.247-0.22-0.402-0.277l-7.2-2.7 1.825-9.162c0.042-0.212 0.015-0.432-0.077-0.628s-0.245-0.357-0.435-0.459c-0.192-0.102-0.413-0.138-0.628-0.102s-0.412 0.142-0.56 0.302l-14 15c-0.115 0.119-0.198 0.265-0.241 0.424s-0.047 0.327-0.009 0.488c0.039 0.16 0.116 0.309 0.225 0.433s0.246 0.22 0.4 0.28l7.2 2.7-1.825 9.163c-0.042 0.212-0.015 0.432 0.077 0.628s0.245 0.357 0.435 0.459c0.144 0.072 0.302 0.111 0.463 0.113 0.136 0.001 0.27-0.027 0.395-0.081s0.237-0.133 0.33-0.232l14-15c0.115-0.119 0.198-0.265 0.241-0.424s0.047-0.327 0.009-0.488z"></path>
</symbol>
<symbol id="send" viewBox="0 0 32 32">
<path d="M31.873 3.044l-7.642 27.11c-0.127 0.459-0.393 0.868-0.761 1.17s-0.82 0.485-1.295 0.521h-0.204c-0.439-0.001-0.87-0.126-1.241-0.361s-0.669-0.57-0.859-0.966l-5.206-10.996c-0.051-0.11-0.067-0.234-0.046-0.354s0.078-0.23 0.163-0.317l7.481-7.481c0.117-0.106 0.211-0.235 0.277-0.379s0.102-0.299 0.106-0.457c0.004-0.158-0.024-0.315-0.083-0.462s-0.147-0.28-0.258-0.392c-0.112-0.112-0.245-0.2-0.392-0.258s-0.304-0.087-0.462-0.083c-0.158 0.004-0.314 0.040-0.457 0.106s-0.273 0.16-0.379 0.277l-7.481 7.496c-0.087 0.085-0.197 0.142-0.317 0.163s-0.243 0.005-0.354-0.046l-10.938-5.177c-0.428-0.202-0.787-0.525-1.034-0.93s-0.368-0.872-0.352-1.345c0.026-0.487 0.205-0.954 0.511-1.333s0.725-0.653 1.195-0.781l27.169-7.656c0.475-0.136 0.981-0.117 1.445 0.053s0.862 0.484 1.136 0.895c0.184 0.292 0.304 0.62 0.352 0.962s0.022 0.69-0.075 1.021z"></path>
</symbol>
<symbol id="qrcode" viewBox="0 0 32 32">
<path d="M11.909 1h-8.182c-1.506 0-2.727 1.221-2.727 2.727v8.182c0 1.506 1.221 2.727 2.727 2.727h8.182c1.506 0 2.727-1.221 2.727-2.727v-8.182c0-1.506-1.221-2.727-2.727-2.727z"></path>
<path d="M11.909 17.364h-8.182c-1.506 0-2.727 1.221-2.727 2.727v8.182c0 1.506 1.221 2.727 2.727 2.727h8.182c1.506 0 2.727-1.221 2.727-2.727v-8.182c0-1.506-1.221-2.727-2.727-2.727z"></path>
<path d="M28.273 1h-8.182c-1.506 0-2.727 1.221-2.727 2.727v8.182c0 1.506 1.221 2.727 2.727 2.727h8.182c1.506 0 2.727-1.221 2.727-2.727v-8.182c0-1.506-1.221-2.727-2.727-2.727z"></path>
<path d="M18.727 25.545c0.362 0 0.709-0.144 0.964-0.399s0.399-0.603 0.399-0.964v-5.455c0-0.362-0.144-0.709-0.399-0.964s-0.603-0.399-0.964-0.399c-0.362 0-0.709 0.144-0.964 0.399s-0.399 0.603-0.399 0.964v5.455c0 0.362 0.144 0.709 0.399 0.964s0.603 0.399 0.964 0.399z"></path>
<path d="M29.636 20.091h-4.091v-1.364c0-0.362-0.144-0.709-0.399-0.964s-0.603-0.399-0.964-0.399c-0.362 0-0.709 0.144-0.964 0.399s-0.399 0.603-0.399 0.964v9.545h-4.091c-0.362 0-0.709 0.144-0.964 0.399s-0.399 0.603-0.399 0.964c0 0.362 0.144 0.709 0.399 0.964s0.603 0.399 0.964 0.399h5.455c0.362 0 0.709-0.144 0.964-0.399s0.399-0.603 0.399-0.964v-6.818h4.091c0.362 0 0.709-0.144 0.964-0.399s0.399-0.603 0.399-0.964c0-0.362-0.144-0.709-0.399-0.964s-0.603-0.399-0.964-0.399z"></path>
<path d="M29.636 25.545c-0.362 0-0.709 0.144-0.964 0.399s-0.399 0.603-0.399 0.964v2.727c0 0.362 0.144 0.709 0.399 0.964s0.603 0.399 0.964 0.399c0.362 0 0.709-0.144 0.964-0.399s0.399-0.603 0.399-0.964v-2.727c0-0.362-0.144-0.709-0.399-0.964s-0.603-0.399-0.964-0.399z"></path>
</symbol>
<symbol id="account" viewBox="0 0 33 32">
<path stroke-linejoin="miter" stroke-linecap="butt" stroke-miterlimit="10" stroke-width="2.4828" d="M16.552 21.517c5.485 0 9.931-4.446 9.931-9.931s-4.446-9.931-9.931-9.931-9.931 4.446-9.931 9.931c0 5.485 4.446 9.931 9.931 9.931z"></path>
<path stroke-linejoin="round" stroke-linecap="round" stroke-miterlimit="4" stroke-width="2.4828" d="M1.5 30.207c1.525-2.642 3.719-4.837 6.361-6.362s5.639-2.329 8.69-2.329c3.051 0 6.048 0.803 8.69 2.329s4.836 3.72 6.361 6.362"></path>
</symbol>
<symbol id="wallet" viewBox="0 0 36 32">
<path stroke-linejoin="round" stroke-linecap="round" stroke-miterlimit="4" stroke-width="2.0769" d="M2 4.923v22.154c0 0.734 0.292 1.439 0.811 1.958s1.224 0.811 1.958 0.811h27.692c0.367 0 0.719-0.146 0.979-0.406s0.406-0.612 0.406-0.979v-19.385c0-0.367-0.146-0.719-0.406-0.979s-0.612-0.406-0.979-0.406h-27.692c-0.734 0-1.439-0.292-1.958-0.811s-0.811-1.224-0.811-1.958zM2 4.923c0-0.734 0.292-1.439 0.811-1.958s1.224-0.811 1.958-0.811h23.538"></path>
</symbol>
<symbol id="stats" viewBox="0 0 32 32">
<path d="M6.933 22.8h-4.533v6.8h4.533v-6.8zM18.267 13.733h-4.533v15.867h4.533v-15.867zM29.6 2.4v27.2h-4.533v-27.2h4.533zM25.067 0.133c-0.601 0-1.178 0.239-1.603 0.664s-0.664 1.002-0.664 1.603v27.2c0 0.601 0.239 1.178 0.664 1.603s1.002 0.664 1.603 0.664h4.533c0.601 0 1.178-0.239 1.603-0.664s0.664-1.002 0.664-1.603v-27.2c0-0.601-0.239-1.178-0.664-1.603s-1.002-0.664-1.603-0.664h-4.533zM11.467 13.733c0-0.601 0.239-1.178 0.664-1.603s1.002-0.664 1.603-0.664h4.533c0.601 0 1.178 0.239 1.603 0.664s0.664 1.002 0.664 1.603v15.867c0 0.601-0.239 1.178-0.664 1.603s-1.002 0.664-1.603 0.664h-4.533c-0.601 0-1.178-0.239-1.603-0.664s-0.664-1.002-0.664-1.603v-15.867zM0.133 22.8c0-0.601 0.239-1.178 0.664-1.603s1.002-0.664 1.603-0.664h4.533c0.601 0 1.178 0.239 1.603 0.664s0.664 1.002 0.664 1.603v6.8c0 0.601-0.239 1.178-0.664 1.603s-1.002 0.664-1.603 0.664h-4.533c-0.601 0-1.178-0.239-1.603-0.664s-0.664-1.002-0.664-1.603v-6.8z"></path>
</symbol>
<symbol id="home" viewBox="0 0 31 32">
<path d="M20.129 31.068v-7.742c0-1.232-0.489-2.414-1.361-3.285s-2.053-1.361-3.285-1.361c-1.232 0-2.414 0.489-3.285 1.361s-1.361 2.053-1.361 3.285v7.742h-7.742c-0.821 0-1.609-0.326-2.19-0.907s-0.907-1.368-0.907-2.19v-16.828c0-0.535 0.138-1.060 0.402-1.526s0.643-0.855 1.102-1.13l12.387-7.432c0.481-0.289 1.032-0.441 1.593-0.441s1.112 0.153 1.593 0.441l12.387 7.432c0.459 0.275 0.838 0.664 1.102 1.13s0.402 0.991 0.402 1.526v16.828c0 0.821-0.326 1.609-0.907 2.19s-1.368 0.907-2.19 0.907h-7.742z"></path>
</symbol>
<symbol id="arrow-up" viewBox="0 0 32 32">
<path fill="#fff" style="fill: var(--color5, #fff)" d="M9.292 12.708c0.093 0.093 0.203 0.167 0.325 0.217s0.252 0.076 0.383 0.076c0.132 0 0.262-0.026 0.383-0.076s0.232-0.124 0.325-0.217l5.292-5.294 5.292 5.294c0.188 0.188 0.442 0.293 0.708 0.293s0.52-0.105 0.708-0.293c0.188-0.188 0.293-0.442 0.293-0.708s-0.105-0.52-0.293-0.708l-6-6c-0.093-0.093-0.203-0.167-0.325-0.217s-0.252-0.076-0.383-0.076c-0.132 0-0.262 0.026-0.383 0.076s-0.232 0.124-0.325 0.217l-6 6c-0.093 0.093-0.167 0.203-0.217 0.325s-0.076 0.252-0.076 0.383c0 0.132 0.026 0.262 0.076 0.383s0.124 0.232 0.217 0.325z"></path>
<path fill="#fff" style="fill: var(--color5, #fff)" d="M16 27c0.265 0 0.52-0.105 0.707-0.293s0.293-0.442 0.293-0.707v-18c0-0.265-0.105-0.52-0.293-0.707s-0.442-0.293-0.707-0.293c-0.265 0-0.52 0.105-0.707 0.293s-0.293 0.442-0.293 0.707v18c0 0.265 0.105 0.52 0.293 0.707s0.442 0.293 0.707 0.293z"></path>
</symbol>
<symbol id="arrow-down" viewBox="0 0 32 32">
<path fill="#fff" style="fill: var(--color5, #fff)" d="M9.292 19.292c0.093-0.093 0.203-0.167 0.325-0.217s0.252-0.076 0.383-0.076 0.262 0.026 0.383 0.076c0.121 0.050 0.232 0.124 0.325 0.217l5.292 5.294 5.292-5.294c0.188-0.188 0.442-0.293 0.708-0.293s0.52 0.105 0.708 0.293c0.188 0.188 0.293 0.442 0.293 0.708s-0.105 0.52-0.293 0.708l-6 6c-0.093 0.093-0.203 0.167-0.325 0.217s-0.252 0.076-0.383 0.076-0.262-0.026-0.383-0.076c-0.121-0.050-0.232-0.124-0.325-0.217l-6-6c-0.093-0.093-0.167-0.203-0.217-0.325s-0.076-0.252-0.076-0.383 0.026-0.262 0.076-0.383c0.050-0.121 0.124-0.232 0.217-0.325z"></path>
<path fill="#fff" style="fill: var(--color5, #fff)" d="M16 5c0.265 0 0.52 0.105 0.707 0.293s0.293 0.442 0.293 0.707v18c0 0.265-0.105 0.52-0.293 0.707s-0.442 0.293-0.707 0.293-0.52-0.105-0.707-0.293c-0.188-0.187-0.293-0.442-0.293-0.707v-18c0-0.265 0.105-0.52 0.293-0.707s0.442-0.293 0.707-0.293z"></path>
</symbol>
<symbol id="bell-notify" viewBox="0 0 32 32">
<path fill="#fff" style="fill: var(--color5, #fff)" d="M16 31.556c1.031 0 2.021-0.41 2.75-1.139s1.139-1.719 1.139-2.75h-7.778c0 1.031 0.41 2.021 1.139 2.75s1.719 1.139 2.75 1.139z"></path>
<path fill="#fff" style="fill: var(--color5, #fff)" d="M16 4.174l-1.55 0.313c-1.758 0.358-3.338 1.313-4.473 2.702s-1.755 3.128-1.755 4.922c0 1.221-0.261 4.272-0.893 7.276-0.311 1.491-0.731 3.045-1.289 4.391h19.919c-0.558-1.345-0.976-2.897-1.289-4.391-0.632-3.004-0.892-6.055-0.892-7.276-0.001-1.794-0.621-3.532-1.756-4.921s-2.715-2.343-4.472-2.701l-1.55-0.317v0.002zM28.095 23.778c0.434 0.869 0.935 1.558 1.517 1.945h-27.222c0.581-0.387 1.083-1.075 1.517-1.945 1.75-3.5 2.372-9.955 2.372-11.667 0-4.706 3.344-8.633 7.788-9.53-0.027-0.27 0.003-0.543 0.088-0.802s0.223-0.496 0.405-0.697c0.182-0.202 0.405-0.363 0.653-0.473s0.517-0.167 0.789-0.167c0.272 0 0.54 0.057 0.789 0.167s0.471 0.271 0.653 0.473c0.182 0.202 0.32 0.439 0.405 0.697s0.115 0.531 0.088 0.802c2.198 0.447 4.173 1.64 5.593 3.377s2.195 3.91 2.195 6.153c0 1.711 0.622 8.167 2.372 11.667z"></path>
<path fill="#ffab7b" style="fill: var(--color6, #ffab7b)" d="M29.333 8.222c0 3.068-2.487 5.556-5.556 5.556s-5.556-2.487-5.556-5.556c0-3.068 2.487-5.556 5.556-5.556s5.556 2.487 5.556 5.556z"></path>
</symbol>
<symbol id="bell" viewBox="0 0 29 32">
<path fill="#fff" style="fill: var(--color5, #fff)" d="M14.667 31.556c1.031 0 2.021-0.41 2.75-1.139s1.139-1.719 1.139-2.75h-7.778c0 1.031 0.41 2.021 1.139 2.75s1.719 1.139 2.75 1.139z"></path>
<path fill="#fff" style="fill: var(--color5, #fff)" d="M14.667 4.174l-1.55 0.313c-1.758 0.358-3.338 1.313-4.473 2.702s-1.755 3.128-1.755 4.922c0 1.221-0.261 4.272-0.893 7.276-0.311 1.491-0.731 3.045-1.289 4.391h19.919c-0.558-1.345-0.976-2.897-1.289-4.391-0.632-3.004-0.892-6.055-0.892-7.276-0.001-1.794-0.621-3.532-1.756-4.921s-2.715-2.343-4.472-2.701l-1.55-0.317v0.002zM26.761 23.778c0.434 0.869 0.935 1.558 1.517 1.945h-27.222c0.581-0.387 1.083-1.075 1.517-1.945 1.75-3.5 2.372-9.955 2.372-11.667 0-4.706 3.344-8.633 7.787-9.53-0.027-0.27 0.003-0.543 0.088-0.802s0.223-0.496 0.405-0.697c0.182-0.202 0.405-0.363 0.653-0.473s0.517-0.167 0.789-0.167c0.272 0 0.54 0.057 0.789 0.167s0.471 0.271 0.653 0.473c0.182 0.202 0.32 0.439 0.405 0.697s0.115 0.531 0.088 0.802c2.198 0.447 4.173 1.64 5.593 3.377s2.195 3.91 2.195 6.153c0 1.711 0.622 8.167 2.372 11.667z"></path>
</symbol>
<symbol id="download" viewBox="0 0 22 24">
<path d="M6.67167 13.505C6.56232 13.6135 6.47552 13.7425 6.41629 13.8847C6.35706 14.0268 6.32657 14.1793 6.32657 14.3333C6.32657 14.4874 6.35706 14.6399 6.41629 14.782C6.47552 14.9242 6.56232 15.0532 6.67167 15.1617L10.1717 18.6617C10.2801 18.771 10.4092 18.8578 10.5513 18.9171C10.6935 18.9763 10.846 19.0068 11 19.0068C11.154 19.0068 11.3065 18.9763 11.4487 18.9171C11.5908 18.8578 11.7199 18.771 11.8283 18.6617L15.3283 15.1617C15.548 14.942 15.6714 14.644 15.6714 14.3333C15.6714 14.0227 15.548 13.7247 15.3283 13.505C15.1086 13.2853 14.8107 13.1619 14.5 13.1619C14.1893 13.1619 13.8914 13.2853 13.6717 13.505L12.1667 15.0217V1.50001C12.1667 1.19059 12.0437 0.893845 11.825 0.675052C11.6062 0.45626 11.3094 0.333344 11 0.333344C10.6906 0.333344 10.3938 0.45626 10.175 0.675052C9.95625 0.893845 9.83333 1.19059 9.83333 1.50001V15.0217L8.32833 13.505C8.21988 13.3957 8.09084 13.3089 7.94867 13.2496C7.8065 13.1904 7.65401 13.1599 7.5 13.1599C7.34599 13.1599 7.1935 13.1904 7.05133 13.2496C6.90916 13.3089 6.78012 13.3957 6.67167 13.505ZM18 8.50001H15.6667C15.3572 8.50001 15.0605 8.62293 14.8417 8.84172C14.6229 9.06051 14.5 9.35726 14.5 9.66668C14.5 9.9761 14.6229 10.2728 14.8417 10.4916C15.0605 10.7104 15.3572 10.8333 15.6667 10.8333H18C18.3094 10.8333 18.6062 10.9563 18.825 11.1751C19.0438 11.3938 19.1667 11.6906 19.1667 12V20.1667C19.1667 20.4761 19.0438 20.7728 18.825 20.9916C18.6062 21.2104 18.3094 21.3333 18 21.3333H4C3.69058 21.3333 3.39383 21.2104 3.17504 20.9916C2.95625 20.7728 2.83333 20.4761 2.83333 20.1667V12C2.83333 11.6906 2.95625 11.3938 3.17504 11.1751C3.39383 10.9563 3.69058 10.8333 4 10.8333H6.33333C6.64275 10.8333 6.9395 10.7104 7.15829 10.4916C7.37708 10.2728 7.5 9.9761 7.5 9.66668C7.5 9.35726 7.37708 9.06051 7.15829 8.84172C6.9395 8.62293 6.64275 8.50001 6.33333 8.50001H4C3.07174 8.50001 2.1815 8.86876 1.52513 9.52514C0.868749 10.1815 0.5 11.0718 0.5 12V20.1667C0.5 21.0949 0.868749 21.9852 1.52513 22.6416C2.1815 23.2979 3.07174 23.6667 4 23.6667H18C18.9283 23.6667 19.8185 23.2979 20.4749 22.6416C21.1313 21.9852 21.5 21.0949 21.5 20.1667V12C21.5 11.0718 21.1313 10.1815 20.4749 9.52514C19.8185 8.86876 18.9283 8.50001 18 8.50001Z" fill="black"/>
</symbol>
<symbol id="up" viewBox="0 0 10 6">
<path fill-rule="evenodd" clip-rule="evenodd" d="M0.763604 5.43641C1.11508 5.78788 1.68492 5.78788 2.0364 5.43641L5 2.4728L7.9636 5.43641C8.31508 5.78788 8.88492 5.78788 9.2364 5.43641C9.58787 5.08494 9.58787 4.51509 9.2364 4.16362L5.6364 0.563616C5.28492 0.212144 4.71508 0.212144 4.3636 0.563616L0.763604 4.16362C0.412132 4.51509 0.412132 5.08494 0.763604 5.43641Z" fill="#EEEEEE"/>
</symbol>
<symbol id="dots" viewBox="0 0 21 5">
<circle cx="2.5" cy="2.5" r="2.5" fill="#EEEEEE"/>
<circle cx="10.5" cy="2.5" r="2.5" fill="#EEEEEE"/>
<circle cx="18.5" cy="2.5" r="2.5" fill="#EEEEEE"/>
</symbol>
</defs>
</svg>
